<svg id="Layer_1" data-name="Layer 1" xmlns="http://www.w3.org/2000/svg" viewBox="0 0 286.47 135.32"><defs><style>.cls-1{fill:#fff;}</style></defs><path class="cls-1" d="M71.28,100.57c10.79-10.88,19.6-28.24,15-48A6,6,0,0,0,84,49.08c-4.2-3.09-10.32-5.29-16.63-8.16-1.2-.54-2.48.49-1.92,1.62C69.85,51.34,79,74.36,71,100.4a.18.18,0,0,0,.31.17"/><path class="cls-1" d="M68.84,102.37h0c2.77-4.81,6.23-45.18-20.11-70.5a7.08,7.08,0,0,0-2.43-1.5c-7.37-2.71-18.82-5.94-25.16-7.65a1.47,1.47,0,0,0-1.59,2.33c17.86,21.25,41.69,56.46,35.74,87.6a78.32,78.32,0,0,0,11.94-8.46,10.7,10.7,0,0,0,1.61-1.82"/><path class="cls-1" d="M53.43,112.65a54.43,54.43,0,0,0-1.29-19.34l-8.74,4a4.43,4.43,0,0,0-2.71,2.8,5,5,0,0,0,2,5.42Z"/><path class="cls-1" d="M125.13,50l-9,19.92h-.78l-9-19.92h4.07a.67.67,0,0,1,.63.43l4.72,11.43,4.67-11.43a.7.7,0,0,1,.64-.43Z"/><path class="cls-1" d="M127.79,50h3.31a.69.69,0,0,1,.69.69V69.54h-4Z"/><path class="cls-1" d="M136.25,50h6.41c6.19-.06,10.75,3.93,10.66,9.74.09,5.65-4.47,9.91-10.66,9.81h-6.41Zm6.37,15.94c3.94,0,6.58-2.46,6.58-6.2s-2.57-6.1-6.58-6.1h-2.35v12.3Z"/><path class="cls-1" d="M164.81,61.85v7.69h-4V61.88L154.06,50h4a.69.69,0,0,1,.6.36l4.13,7.42,4.11-7.42a.69.69,0,0,1,.6-.36h4Z"/><path class="cls-1" d="M183.29,67h-8l-.92,2.12a.69.69,0,0,1-.63.41H169.9l9-19.89h.79l9,19.89h-3.86a.69.69,0,0,1-.63-.41Zm-4-9.92-2.61,6.61h5.22Z"/><path class="cls-1" d="M192.59,63.49c1.28,1.77,2.67,2.87,4.81,2.87,1.75,0,2.78-.83,2.78-2.18,0-1.16-.62-1.55-2.48-2.43l-2.12-1c-3-1.31-4.73-3-4.73-5.62,0-3.34,2.78-5.53,6.47-5.53a7.08,7.08,0,0,1,6.15,3.15.69.69,0,0,1-.16.93l-2.24,1.71a4.4,4.4,0,0,0-3.75-2.25c-1.38,0-2.42.7-2.42,1.93,0,1,.62,1.47,2.29,2.21l2.21,1c3.29,1.45,4.84,3.11,4.84,5.73,0,3.57-2.94,5.86-6.84,5.86a8.51,8.51,0,0,1-7.21-3.75.69.69,0,0,1,.15-.93Z"/><path class="cls-1" d="M207.76,50h3.3a.69.69,0,0,1,.69.69v6.83h8.66V50.68a.69.69,0,0,1,.69-.69h3.31V69.54h-4V61.1h-8.66v8.44h-4Z"/><path class="cls-1" d="M228.87,50h3.32a.69.69,0,0,1,.69.69V69.54h-4Z"/><path class="cls-1" d="M237.35,50h3.3a.69.69,0,0,1,.69.69V65.93h8.57v3.61H237.35Z"/><path class="cls-1" d="M252.87,50h7.34c4.09,0,7.06,2.55,7.06,6.34s-3,6.34-7.06,6.34h-3.34v6.18a.69.69,0,0,1-.69.69h-3.31Zm7.34,9.17a2.82,2.82,0,1,0,0-5.64h-3.34v5.64Z"/><path class="cls-1" d="M108.19,79.76h1.87a.41.41,0,0,1,.41.41V91.5c0,3.73,2.2,5.71,5.37,5.71s5.33-2,5.33-5.71V80.17a.41.41,0,0,1,.41-.41h1.86V91.37c0,5-3.2,7.95-7.6,7.95s-7.65-2.93-7.65-7.95Z"/><path class="cls-1" d="M143.83,79.76V99.32H143L130.78,84.58v14a.41.41,0,0,1-.41.41h-1.86V79.47h.81L141.56,94.2v-14a.41.41,0,0,1,.41-.41Z"/><path class="cls-1" d="M149.13,79.76H151a.41.41,0,0,1,.41.41V99h-2.27Z"/><path class="cls-1" d="M172.42,79.76l-8.33,19.56h-.85l-8.32-19.56h2.22a.41.41,0,0,1,.38.25l6.16,14.84L169.81,80a.41.41,0,0,1,.38-.25Z"/><path class="cls-1" d="M176,79.76h12.31v1.62a.41.41,0,0,1-.41.41h-9.63v5.88h7.68v2h-7.68v7.22h10a.41.41,0,0,1,.41.42V99H176Z"/><path class="cls-1" d="M204.8,99l-6-8.09h-4.09v7.68a.41.41,0,0,1-.41.41h-1.88V79.76h6.78c3.73,0,6.12,2.34,6.12,5.57a5.33,5.33,0,0,1-4,5.32L207.44,99ZM194.73,88.9h4.39c2.48,0,3.87-1.43,3.87-3.53s-1.43-3.58-3.87-3.58h-4.39Z"/><path class="cls-1" d="M210.66,93.91c1.42,2.18,3.23,3.3,5.34,3.3,2.31,0,3.89-1.25,3.89-3.19,0-1.76-1-2.36-3.21-3.38l-2.16-1c-2.64-1.25-4.34-2.62-4.34-5.19,0-3,2.66-5,5.8-5a7.12,7.12,0,0,1,5.81,2.9.42.42,0,0,1-.1.57l-1.34,1a5.36,5.36,0,0,0-4.4-2.41c-1.9,0-3.41,1-3.41,2.81a2.4,2.4,0,0,0,.38,1.39,6.19,6.19,0,0,0,2.71,1.85l2.13,1c3,1.5,4.48,2.88,4.48,5.36,0,3.15-2.62,5.37-6.2,5.37a8.08,8.08,0,0,1-6.88-3.83.42.42,0,0,1,.11-.55Z"/><path class="cls-1" d="M226.65,79.76h1.87a.41.41,0,0,1,.41.41V99h-2.28Z"/><path class="cls-1" d="M238.86,81.79h-6.34a.41.41,0,0,1-.41-.41V79.76h15.81v1.62a.41.41,0,0,1-.41.41h-6.36V99h-2.29Z"/><path class="cls-1" d="M258.58,91.05V99H256.3V91.05l-6.65-11.29H252a.42.42,0,0,1,.35.2l5.12,8.83L262.6,80a.42.42,0,0,1,.35-.2h2.3Z"/></svg>